<svg width="338" height="207" viewBox="0 0 338 207" fill="none" xmlns="http://www.w3.org/2000/svg">
<g clip-path="url(#clip0_28_215)">
<path d="M11.4581 158.84C13.1256 142.777 23.2041 126.743 39.2402 121.134C33.3145 137.771 33.8154 155.85 40.6541 172.172C43.3157 178.457 46.9695 185.187 44.8076 191.641C43.4625 195.657 39.987 198.79 36.0606 200.792C32.134 202.794 27.743 203.81 23.4067 204.807L22.567 205.498C15.2367 190.916 9.79058 174.903 11.4581 158.84Z" fill="#F0F0F0"/>
<path d="M39.4091 121.433C30.3549 131.519 24.6562 144.399 23.6598 157.604C23.4444 160.459 23.4892 163.373 24.2263 166.163C24.967 168.878 26.4645 171.356 28.5632 173.34C30.4807 175.227 32.6736 176.948 34.0717 179.242C35.5453 181.66 35.6763 184.445 34.7858 187.074C33.6963 190.291 31.4471 192.946 29.152 195.47C26.6037 198.273 23.9098 201.146 22.8947 204.804C22.7717 205.247 22.0502 205.041 22.1731 204.599C23.9391 198.235 30.3368 194.487 33.2779 188.722C34.6503 186.032 35.1719 182.936 33.7392 180.167C32.4863 177.746 30.2265 175.97 28.2675 174.075C26.2106 172.085 24.6148 169.886 23.75 167.206C22.8653 164.465 22.6997 161.547 22.8369 158.699C23.1989 152.244 24.634 145.883 27.0898 139.849C29.8521 132.947 33.845 126.543 38.8958 120.912C39.2086 120.564 39.7199 121.087 39.4091 121.433L39.4091 121.433Z" fill="white"/>
<path d="M23.7437 153.296C21.4007 152.82 19.3132 151.573 17.8542 149.778C16.3952 147.984 15.6597 145.758 15.7789 143.499C15.7847 143.407 15.8281 143.321 15.9 143.258C15.9719 143.196 16.0667 143.162 16.1645 143.164C16.2622 143.166 16.3552 143.204 16.4239 143.27C16.4926 143.336 16.5316 143.424 16.5326 143.516C16.4175 145.62 17.1029 147.693 18.4651 149.361C19.8273 151.03 21.7767 152.184 23.9613 152.615C24.4359 152.709 24.2156 153.39 23.7437 153.296Z" fill="white"/>
<path d="M27.4574 172.505C31.5972 170.031 34.5972 166.177 35.8592 161.709C35.9838 161.266 36.7053 161.472 36.5808 161.914C35.2584 166.561 32.1278 170.567 27.8138 173.131C27.4025 173.375 27.0483 172.747 27.4574 172.505Z" fill="white"/>
<path d="M30.5698 133.604C31.4357 133.966 32.3834 134.12 33.3279 134.052C34.2724 133.983 35.1841 133.694 35.981 133.211C36.3889 132.962 36.7427 133.59 36.3375 133.838C35.4543 134.368 34.4471 134.686 33.4037 134.764C32.3604 134.842 31.3127 134.677 30.3522 134.285C30.2583 134.255 30.1801 134.193 30.1332 134.11C30.0864 134.028 30.0746 133.932 30.1001 133.842C30.1294 133.752 30.1952 133.676 30.2831 133.632C30.371 133.587 30.4741 133.577 30.5697 133.604H30.5698Z" fill="white"/>
<path d="M89.3493 148.518C89.0993 148.681 88.8493 148.843 88.5991 149.011C85.25 151.21 82.0957 153.661 79.1673 156.342C78.9374 156.546 78.7076 156.756 78.4844 156.965C71.5022 163.494 65.865 171.19 61.8596 179.661C60.269 183.034 58.9526 186.515 57.9217 190.076C56.4984 194.994 55.3697 200.432 52.3956 204.499C52.0904 204.927 51.7573 205.336 51.3985 205.725L23.5253 206.411C23.4612 206.382 23.3968 206.36 23.3324 206.332L22.2208 206.407C22.2604 206.22 22.3057 206.026 22.3453 205.839C22.3677 205.731 22.3964 205.622 22.4189 205.513C22.4358 205.441 22.4531 205.368 22.464 205.302C22.4696 205.278 22.4754 205.254 22.4811 205.235C22.492 205.169 22.5096 205.109 22.5207 205.048C22.7708 203.967 23.0294 202.886 23.2965 201.804C23.2963 201.798 23.2963 201.798 23.3023 201.792C25.3596 193.556 28.1635 185.409 32.1884 177.923C32.3096 177.698 32.4303 177.467 32.5642 177.241C34.3983 173.876 36.5208 170.659 38.9104 167.62C40.2245 165.96 41.6268 164.364 43.112 162.838C46.9574 158.902 51.4349 155.562 56.3803 152.939C66.2397 147.712 77.7608 145.518 88.5288 148.298C88.8042 148.37 89.0737 148.441 89.3493 148.518Z" fill="#F0F0F0"/>
<path d="M89.2958 148.854C75.6323 151.762 62.8648 158.809 53.645 168.786C51.6517 170.943 49.8286 173.295 48.6369 175.942C47.4962 178.53 47.1109 181.36 47.5209 184.136C47.8481 186.733 48.5013 189.352 48.1541 191.978C47.7881 194.746 46.1158 197.045 43.7277 198.638C40.8058 200.587 37.316 201.429 33.873 202.14C30.0502 202.93 26.0663 203.694 22.9223 206.038C22.5414 206.322 22.0968 205.747 22.4771 205.464C27.9471 201.386 35.446 202.029 41.4722 199.097C44.2841 197.729 46.6762 195.553 47.2986 192.528C47.8429 189.883 47.1717 187.181 46.8163 184.555C46.4432 181.797 46.572 179.135 47.5911 176.504C48.6337 173.812 50.3632 171.388 52.2893 169.193C56.6964 164.244 61.9004 159.981 67.7108 156.558C74.3193 152.617 81.5934 149.772 89.2184 148.146C89.6904 148.046 89.7647 148.754 89.2959 148.854H89.2958Z" fill="white"/>
<path d="M56.4606 165.394C54.8936 163.682 54.0222 161.5 54.0022 159.239C53.9821 156.977 54.8146 154.782 56.3511 153.046C56.6633 152.696 57.2547 153.137 56.9421 153.488C55.5082 155.102 54.7329 157.146 54.7561 159.253C54.7794 161.359 55.5996 163.388 57.0688 164.973C57.3877 165.318 56.7776 165.736 56.4606 165.394Z" fill="white"/>
<path d="M47.1713 182.841C52.0545 183.218 56.909 181.845 60.767 178.995C61.149 178.712 61.5937 179.286 61.2122 179.569C57.1916 182.528 52.1367 183.947 47.056 183.544C46.5718 183.505 46.6897 182.802 47.1713 182.841H47.1713Z" fill="white"/>
<path d="M74.4735 153.549C74.9336 154.331 75.5922 154.992 76.3901 155.474C77.188 155.956 78.1002 156.243 79.0448 156.31C79.5293 156.343 79.4109 157.046 78.9295 157.013C77.8862 156.934 76.8792 156.616 75.9964 156.085C75.1136 155.555 74.3819 154.828 73.8653 153.969C73.8094 153.892 73.7868 153.798 73.8019 153.705C73.817 153.613 73.8688 153.53 73.9468 153.472C74.0276 153.417 74.1283 153.394 74.2269 153.408C74.3256 153.423 74.4142 153.473 74.4735 153.549Z" fill="white"/>
<path d="M252.94 14.904C252.524 13.7443 247.305 9.80217 250.503 9.13958L253.126 12.4397L265.183 1.06107L266.395 2.20549L252.94 14.904Z" fill="#F54708"/>
<path d="M252.94 53.596C252.524 52.4363 247.305 48.4942 250.503 47.8316L253.126 51.1317L265.183 39.7531L266.395 40.8975L252.94 53.596Z" fill="#F54708"/>
<path d="M252.94 92.8408C252.524 91.6811 247.305 87.739 250.503 87.0764L253.126 90.3765L265.183 78.9979L266.395 80.1423L252.94 92.8408Z" fill="#F54708"/>
<path d="M241.837 61.1124C243.892 61.1124 245.558 59.5404 245.558 57.6011C245.558 55.6619 243.892 54.0899 241.837 54.0899C239.782 54.0899 238.117 55.6619 238.117 57.6011C238.117 59.5404 239.782 61.1124 241.837 61.1124Z" fill="#3F3D56"/>
<path d="M241.837 22.8396C243.892 22.8396 245.558 21.2676 245.558 19.3283C245.558 17.3891 243.892 15.8171 241.837 15.8171C239.782 15.8171 238.117 17.3891 238.117 19.3283C238.117 21.2676 239.782 22.8396 241.837 22.8396Z" fill="#3F3D56"/>
<path d="M337.271 11.2524H277.369V11.9547H337.271V11.2524Z" fill="#3F3D56"/>
<path d="M243.698 101.911C245.752 101.911 247.418 100.339 247.418 98.3999C247.418 96.4607 245.752 94.8887 243.698 94.8887C241.643 94.8887 239.977 96.4607 239.977 98.3999C239.977 100.339 241.643 101.911 243.698 101.911Z" fill="#3F3D56"/>
<path d="M337.271 49.9444H277.369V50.6467H337.271V49.9444Z" fill="#3F3D56"/>
<path d="M337.271 89.1891H277.369V89.8914H337.271V89.1891Z" fill="#3F3D56"/>
<path d="M262.337 98.0726H243.734V80.1652H256.384V80.8674H244.478V97.3704H261.593V89.2945H262.337V98.0726Z" fill="#3F3D56"/>
<path d="M262.337 58.7464H243.734V40.839H256.384V41.5412H244.478V58.0442H261.593V49.9683H262.337V58.7464Z" fill="#3F3D56"/>
<path d="M262.337 18.718H243.734V0.810547H256.384V1.5128H244.478V18.0157H261.593V9.93984H262.337V18.718Z" fill="#3F3D56"/>
<path d="M140.876 64.6354C140.876 64.6354 135.904 84.4464 141.981 84.4464C148.058 84.4464 162.421 62.0287 162.421 62.0287L157.449 56.2939L148.525 67.9864L148.058 62.0287L140.876 64.6354Z" fill="#A0616A"/>
<path d="M161.096 62.8899C163.767 62.8899 165.933 60.8462 165.933 58.3253C165.933 55.8043 163.767 53.7606 161.096 53.7606C158.425 53.7606 156.259 55.8043 156.259 58.3253C156.259 60.8462 158.425 62.8899 161.096 62.8899Z" fill="#A0616A"/>
<path d="M136.661 199.565L143.099 199.565L146.162 176.128L136.659 176.129L136.661 199.565Z" fill="#A0616A"/>
<path d="M136.434 205.903L156.232 205.903V205.666C156.232 203.738 155.42 201.888 153.975 200.524C152.53 199.16 150.57 198.394 148.526 198.394H148.526L144.909 195.805L138.162 198.394L136.434 198.394L136.434 205.903Z" fill="#2F2E41"/>
<path d="M67.4069 191.985L73.1675 194.697L86.9977 175.018L78.4954 171.014L67.4069 191.985Z" fill="#A0616A"/>
<path d="M64.2046 197.56L81.9195 205.903L82.0314 205.692C82.9439 203.966 83.0927 201.969 82.445 200.14C81.7973 198.31 80.4061 196.799 78.5776 195.937L78.5771 195.937L76.5665 192.096L69.3038 191.57L67.7574 190.841L64.2046 197.56Z" fill="#2F2E41"/>
<path d="M212.812 205.926H0.794067V206.713H212.812V205.926Z" fill="#CCCCCC"/>
<path d="M95.0361 100.575C95.0361 100.575 92.4632 129.771 91.9108 136.027C91.532 139.949 90.6032 143.806 89.1487 147.497C89.1487 147.497 88.0438 149.582 88.0438 151.667L75.5222 173.144C75.5222 173.144 71.6959 175.798 72.2483 177.883C72.8007 179.969 69.9413 181.22 69.9413 181.22L83.1277 183.618C83.1277 183.618 82.5753 182.054 84.2326 181.533C85.8898 181.011 87.2091 176.489 87.2091 176.489L105.721 148.018L118.979 121.951C118.979 121.951 126.713 145.411 128.371 148.018C128.371 148.018 134.447 177.213 135.552 179.82C136.657 182.427 137.209 182.427 136.657 183.469C136.105 184.512 136.105 185.555 136.657 186.076C137.209 186.597 147.705 186.076 147.705 186.076L144.943 149.061L139.972 104.747L114.56 97.4478L95.0361 100.575Z" fill="#2F2E41"/>
<path d="M119.915 30.8781C126.322 30.8781 131.516 25.9765 131.516 19.93C131.516 13.8834 126.322 8.98178 119.915 8.98178C113.508 8.98178 108.314 13.8834 108.314 19.93C108.314 25.9765 113.508 30.8781 119.915 30.8781Z" fill="#A0616A"/>
<path d="M141.076 46.8777L127.266 38.9814C127.266 38.9814 126.883 34.0779 122.949 33.8472C120.973 33.7314 118.009 33.5543 113.56 33.2836C112.62 33.2264 111.985 38.0808 110.908 38.0149L96.3302 41.6643L98.5398 77.1155C98.5398 77.1155 95.2253 91.1917 96.3302 93.7984C97.435 96.4051 93.568 97.4478 94.6729 97.9692C95.7777 98.4905 94.6729 102.14 94.6729 102.14C94.6729 102.14 116.217 112.567 139.972 104.747L137.762 97.9692C138.063 97.0832 138.119 96.1395 137.926 95.2273C137.732 94.315 137.296 93.4644 136.657 92.7557C136.657 92.7557 138.867 89.6277 136.105 87.021C136.105 87.021 137.209 82.3289 134.447 80.2435L133.895 72.9448L135.552 69.2954L141.076 46.8777Z" fill="#E6E6E6"/>
<path d="M109.849 26.1843L109.524 25.4735C109.483 25.3816 105.38 16.2287 109.016 10.5829C110.7 7.96912 113.761 6.49346 118.114 6.1972C124.925 5.7324 129.587 7.25725 131.974 10.7262C132.374 11.3141 132.599 11.9929 132.625 12.6912C132.651 13.3895 132.477 14.0816 132.121 14.6945C131.766 15.3075 131.242 15.8188 130.605 16.1747C129.968 16.5305 129.241 16.7178 128.5 16.7168H128.409L127.157 15.1832L127.084 15.3323C126.631 16.2574 125.591 16.7639 124.372 16.653C124.165 16.6389 123.981 16.8078 123.833 17.1692C123.784 17.3273 123.69 17.4699 123.562 17.582C123.434 17.694 123.276 17.7715 123.105 17.8062C122.205 17.9716 120.921 16.9011 120.346 16.3675C120.324 16.4903 120.274 16.6072 120.2 16.7103C120.126 16.8133 120.029 16.9001 119.917 16.9649C119.311 17.2946 118.369 16.8639 118.098 16.7267C115.943 17.1588 114.549 17.0432 113.951 16.3836C113.546 19.0886 112.676 23.9574 111.634 24.2272C111.525 24.2509 111.411 24.2408 111.308 24.1986C111.206 24.1563 111.12 24.0841 111.065 23.9925C110.814 23.6849 110.589 23.5317 110.449 23.5747C110.11 23.6765 109.91 24.7306 109.881 25.4109L109.849 26.1843Z" fill="#2F2E41"/>
<path d="M135 47.399L140.51 46.5541C144.48 50.1536 147.184 54.8157 148.258 59.9113C149.915 68.2527 150.468 69.8167 150.468 69.8167L137.209 72.9448L130.028 59.9112L135 47.399Z" fill="#E6E6E6"/>
<path d="M110.547 58.2487L107.141 98.9913L194.049 105.461L197.454 64.7185L110.547 58.2487Z" fill="white"/>
<path d="M119.832 61.4053C117.705 59.9719 115.005 59.8683 113.973 59.8889C114.288 60.8159 115.266 63.1935 117.393 64.6275C119.525 66.0645 122.222 66.165 123.252 66.1449C122.937 65.2182 121.959 62.8396 119.832 61.4053Z" fill="#F54708"/>
<path d="M128.222 87.3307L114.267 86.2918C113.855 86.2611 113.44 86.3074 113.047 86.4279C112.653 86.5485 112.289 86.741 111.974 86.9944C111.66 87.2479 111.401 87.5573 111.213 87.9051C111.026 88.2528 110.912 88.6321 110.88 89.0212C110.847 89.4104 110.896 89.8017 111.024 90.173C111.152 90.5443 111.356 90.8881 111.624 91.185C111.893 91.4819 112.221 91.7259 112.589 91.9032C112.958 92.0804 113.359 92.1875 113.772 92.2182L127.727 93.257C128.559 93.319 129.384 93.0663 130.019 92.5544C130.655 92.0426 131.048 91.3135 131.114 90.5276C131.18 89.7417 130.912 88.9634 130.37 88.3638C129.827 87.7643 129.055 87.3927 128.222 87.3307Z" fill="#F54708"/>
<path d="M194.028 60.7584L115.788 54.9331C114.878 54.8655 113.963 54.9677 113.094 55.2339C112.226 55.5001 111.422 55.9251 110.728 56.4845C110.034 57.044 109.463 57.727 109.049 58.4946C108.634 59.2622 108.384 60.0993 108.313 60.9582L105.304 96.9314C105.159 98.6663 105.75 100.384 106.948 101.708C108.145 103.032 109.85 103.852 111.689 103.989L189.929 109.815C190.839 109.882 191.754 109.78 192.623 109.514C193.491 109.248 194.295 108.823 194.989 108.263C195.683 107.704 196.254 107.021 196.668 106.253C197.083 105.486 197.333 104.649 197.404 103.79L200.264 69.5986L200.321 68.9001L200.413 67.8131C200.484 66.9542 200.376 66.0905 200.094 65.2712C199.812 64.4518 199.362 63.6929 198.769 63.0378C198.176 62.3828 197.452 61.8443 196.639 61.4532C195.825 61.062 194.938 60.826 194.028 60.7584ZM191.718 92.057L191.222 97.9835C191.132 99.0302 190.606 100.001 189.759 100.682C188.912 101.364 187.814 101.702 186.705 101.621L176.238 100.843C175.128 100.758 174.1 100.261 173.378 99.4622C172.656 98.6633 172.298 97.627 172.383 96.5799L172.878 90.6533C172.969 89.6068 173.496 88.6367 174.342 87.955C175.188 87.2734 176.286 86.9356 177.396 87.0154L187.86 87.7946C188.969 87.8805 189.997 88.3769 190.72 89.1754C191.442 89.9739 191.801 91.0097 191.718 92.057ZM110.187 88.9667C110.268 88.0077 110.749 87.1182 111.525 86.4935C112.3 85.8687 113.306 85.5597 114.322 85.6342L128.277 86.6737C128.781 86.7104 129.272 86.8406 129.723 87.0566C130.174 87.2727 130.575 87.5705 130.904 87.933C131.233 88.2954 131.482 88.7155 131.639 89.1692C131.796 89.6228 131.856 90.1012 131.817 90.5769C131.778 91.0526 131.639 91.5163 131.41 91.9415C131.181 92.3668 130.865 92.7452 130.48 93.0552C130.096 93.3651 129.651 93.6006 129.17 93.7481C128.689 93.8956 128.182 93.9522 127.678 93.9147L127.671 93.9164L113.717 92.8769C113.213 92.8393 112.722 92.7083 112.271 92.4913C111.821 92.2744 111.42 91.9758 111.093 91.6126C110.765 91.2494 110.516 90.8287 110.361 90.3747C110.205 89.9207 110.146 89.4422 110.187 88.9667ZM113.175 59.654L113.079 59.2856L113.481 59.2509C113.638 59.235 117.35 58.9205 120.239 60.8684C123.129 62.8163 124.015 66.2339 124.053 66.3769L124.145 66.7461L123.744 66.7842C123.176 66.8241 122.605 66.8206 122.037 66.7736C120.231 66.6738 118.486 66.1177 116.985 65.1634C114.096 63.2155 113.209 59.7978 113.175 59.654Z" fill="#F54708"/>
<path d="M179.979 95.9875L175.444 95.6498C175.12 95.6263 174.8 95.7249 174.554 95.9239C174.307 96.123 174.154 96.4062 174.129 96.7115C174.103 97.0167 174.207 97.3191 174.418 97.5521C174.628 97.7852 174.928 97.9299 175.251 97.9545L179.787 98.2922C180.11 98.3157 180.43 98.2172 180.677 98.0181C180.923 97.8191 181.076 97.5358 181.102 97.2306C181.127 96.9253 181.023 96.6229 180.813 96.3899C180.603 96.1568 180.303 96.0121 179.979 95.9875Z" fill="#F54708"/>
<path d="M188.352 96.6108L183.817 96.2731C183.493 96.2498 183.173 96.3485 182.927 96.5475C182.681 96.7465 182.528 97.0297 182.502 97.3348C182.477 97.6399 182.581 97.9422 182.791 98.1752C183.001 98.4082 183.301 98.553 183.624 98.5778L188.159 98.9155C188.483 98.9388 188.803 98.8401 189.049 98.6411C189.296 98.442 189.448 98.1589 189.474 97.8538C189.499 97.5487 189.396 97.2465 189.185 97.0134C188.975 96.7804 188.675 96.6356 188.352 96.6108Z" fill="#F54708"/>
<path d="M180.227 93.0243L175.692 92.6867C175.368 92.6633 175.048 92.762 174.802 92.961C174.555 93.1601 174.403 93.4432 174.377 93.7483C174.352 94.0535 174.455 94.3557 174.666 94.5887C174.876 94.8217 175.176 94.9665 175.499 94.9913L180.034 95.329C180.358 95.3525 180.678 95.254 180.925 95.0549C181.171 94.8559 181.324 94.5727 181.349 94.2674C181.375 93.9621 181.271 93.6597 181.061 93.4267C180.85 93.1936 180.55 93.0489 180.227 93.0243Z" fill="#F54708"/>
<path d="M188.6 93.6476L184.065 93.3099C183.741 93.2864 183.421 93.385 183.174 93.584C182.928 93.7831 182.775 94.0663 182.749 94.3715C182.724 94.6768 182.828 94.9792 183.038 95.2122C183.249 95.4453 183.548 95.59 183.872 95.6146L188.407 95.9523C188.731 95.9758 189.051 95.8773 189.297 95.6782C189.544 95.4792 189.697 95.1959 189.722 94.8907C189.748 94.5854 189.644 94.283 189.434 94.05C189.223 93.8169 188.923 93.6722 188.6 93.6476Z" fill="#F54708"/>
<path d="M180.475 90.061L175.939 89.7234C175.616 89.6998 175.296 89.7984 175.049 89.9974C174.802 90.1965 174.65 90.4797 174.624 90.785C174.598 91.0903 174.702 91.3926 174.913 91.6257C175.123 91.8588 175.423 92.0035 175.747 92.0281L180.282 92.3657C180.605 92.389 180.925 92.2904 181.172 92.0913C181.418 91.8923 181.571 91.6092 181.596 91.3041C181.622 90.9989 181.518 90.6967 181.308 90.4637C181.097 90.2307 180.798 90.0859 180.475 90.061Z" fill="#F54708"/>
<path d="M188.848 90.6844L184.312 90.3467C183.989 90.3234 183.669 90.4221 183.422 90.6211C183.176 90.8202 183.023 91.1033 182.998 91.4084C182.972 91.7136 183.076 92.0158 183.286 92.2488C183.497 92.4818 183.796 92.6266 184.12 92.6514L188.655 92.9891C188.978 93.0124 189.298 92.9137 189.545 92.7147C189.791 92.5157 189.944 92.2325 189.969 91.9274C189.995 91.6223 189.891 91.3201 189.681 91.087C189.47 90.854 189.171 90.7092 188.848 90.6844Z" fill="#F54708"/>
<path d="M107.15 72.3087L107.091 73.0091L198.935 79.8179L198.994 79.1176L107.15 72.3087Z" fill="white"/>
<path d="M200.321 68.9L200.264 69.5987L197.067 69.362L163.012 66.8374L163.073 66.138L197.125 68.6633L200.321 68.9Z" fill="#3F3D56"/>
<path d="M88.0438 61.4753C88.0438 61.4753 83.072 81.2862 89.1487 81.2862C95.2253 81.2862 109.588 58.8685 109.588 58.8685L104.616 53.1338L95.6926 64.8263L95.2253 58.8685L88.0438 61.4753Z" fill="#A0616A"/>
<path d="M108.263 59.7298C110.935 59.7298 113.1 57.6861 113.1 55.1651C113.1 52.6442 110.935 50.6005 108.263 50.6005C105.592 50.6005 103.427 52.6442 103.427 55.1651C103.427 57.6861 105.592 59.7298 108.263 59.7298Z" fill="#A0616A"/>
<path d="M100.354 44.7923L97.0398 41.6643C97.0398 41.6643 90.4107 45.3137 89.8583 48.9631C89.3059 52.6125 86.5438 64.082 86.5438 64.082L96.7636 64.864L100.078 60.1719L100.354 44.7923Z" fill="#E6E6E6"/>
</g>
<defs>
<clipPath id="clip0_28_215">
<rect width="336.476" height="205.903" fill="white" transform="translate(0.794067 0.810547)"/>
</clipPath>
</defs>
</svg>
