<svg width="337" height="207" viewBox="0 0 337 207" fill="none" xmlns="http://www.w3.org/2000/svg">
<g clip-path="url(#clip0_28_273)">
<path d="M212.66 115.32H100.156V206.371H212.66V115.32Z" fill="#F54708"/>
<path d="M218.935 104.67H108.224C107.867 104.671 107.525 104.84 107.273 105.139C107.021 105.439 106.879 105.845 106.879 106.269V195.188C106.879 195.398 106.913 195.606 106.981 195.8C107.049 195.994 107.148 196.17 107.273 196.318C107.398 196.467 107.546 196.584 107.709 196.665C107.872 196.745 108.047 196.786 108.224 196.786H218.935C219.111 196.786 219.286 196.745 219.449 196.665C219.613 196.584 219.761 196.466 219.886 196.318C220.011 196.17 220.11 195.994 220.178 195.8C220.245 195.606 220.28 195.398 220.28 195.188V106.269C220.279 105.845 220.137 105.439 219.885 105.139C219.633 104.84 219.291 104.671 218.935 104.67ZM219.383 195.188C219.383 195.258 219.372 195.327 219.349 195.392C219.327 195.457 219.294 195.516 219.252 195.565C219.21 195.615 219.161 195.654 219.106 195.681C219.052 195.707 218.994 195.721 218.935 195.721H108.224C108.165 195.721 108.107 195.707 108.052 195.681C107.998 195.654 107.948 195.615 107.906 195.565C107.865 195.516 107.832 195.457 107.809 195.392C107.787 195.327 107.775 195.258 107.775 195.188V106.269C107.776 106.127 107.823 105.992 107.907 105.892C107.991 105.792 108.105 105.736 108.224 105.736H218.935C219.054 105.736 219.167 105.792 219.252 105.892C219.336 105.992 219.383 106.127 219.383 106.269V195.188Z" fill="#3F3D56"/>
<path d="M162.701 167.501H113.361C112.999 167.501 112.706 167.849 112.706 168.278V173.645C112.706 174.075 112.999 174.423 113.361 174.423H162.701C163.062 174.423 163.355 174.075 163.355 173.645V168.278C163.355 167.849 163.062 167.501 162.701 167.501Z" fill="#3F3D56"/>
<path d="M209.521 161.645H193.388C193.211 161.645 193.036 161.686 192.873 161.766C192.71 161.846 192.561 161.964 192.437 162.113C192.312 162.261 192.212 162.437 192.145 162.631C192.077 162.825 192.042 163.033 192.042 163.243V178.15C192.042 178.36 192.077 178.568 192.145 178.762C192.212 178.955 192.312 179.132 192.436 179.28C192.561 179.428 192.71 179.546 192.873 179.626C193.036 179.707 193.211 179.748 193.388 179.748H209.521C209.698 179.748 209.873 179.707 210.036 179.626C210.199 179.546 210.347 179.428 210.472 179.28C210.597 179.132 210.696 178.955 210.764 178.762C210.832 178.568 210.866 178.36 210.866 178.15V163.243C210.866 163.033 210.832 162.825 210.764 162.631C210.696 162.437 210.597 162.261 210.472 162.113C210.347 161.964 210.199 161.846 210.036 161.766C209.873 161.686 209.698 161.645 209.521 161.645ZM209.969 178.15C209.969 178.291 209.922 178.427 209.838 178.526C209.754 178.626 209.64 178.682 209.521 178.683H193.388C193.269 178.682 193.155 178.626 193.071 178.526C192.987 178.427 192.94 178.291 192.939 178.15V163.243C192.939 163.173 192.951 163.103 192.973 163.038C192.996 162.974 193.029 162.915 193.07 162.865C193.112 162.816 193.161 162.777 193.216 162.75C193.27 162.723 193.329 162.71 193.388 162.71H209.521C209.58 162.71 209.638 162.723 209.693 162.75C209.747 162.777 209.797 162.816 209.839 162.865C209.88 162.915 209.913 162.974 209.936 163.038C209.958 163.103 209.97 163.173 209.969 163.243V178.15Z" fill="#3F3D56"/>
<path d="M206.299 165.084H196.61C196.248 165.084 195.955 165.433 195.955 165.862V167.01C195.955 167.439 196.248 167.788 196.61 167.788H206.299C206.661 167.788 206.954 167.439 206.954 167.01V165.862C206.954 165.433 206.661 165.084 206.299 165.084Z" fill="#3F3D56"/>
<path d="M206.299 169.344H196.61C196.248 169.344 195.955 169.692 195.955 170.122V171.27C195.955 171.699 196.248 172.047 196.61 172.047H206.299C206.661 172.047 206.954 171.699 206.954 171.27V170.122C206.954 169.692 206.661 169.344 206.299 169.344Z" fill="#3F3D56"/>
<path d="M206.299 173.604H196.61C196.248 173.604 195.955 173.952 195.955 174.381V175.529C195.955 175.959 196.248 176.307 196.61 176.307H206.299C206.661 176.307 206.954 175.959 206.954 175.529V174.381C206.954 173.952 206.661 173.604 206.299 173.604Z" fill="#3F3D56"/>
<path d="M136.704 111.061H114.705C114.344 111.061 114.051 111.409 114.051 111.838V121.997C114.051 122.427 114.344 122.775 114.705 122.775H136.704C137.065 122.775 137.358 122.427 137.358 121.997V111.838C137.358 111.409 137.065 111.061 136.704 111.061Z" fill="#3F3D56"/>
<path d="M127.497 116.918C127.497 118.976 126.695 120.645 125.704 120.645C124.714 120.645 123.911 118.976 123.911 116.918C123.911 114.859 125.704 113.191 125.704 113.191C125.704 113.191 127.497 114.859 127.497 116.918Z" fill="#F54708"/>
<path d="M295.235 63.3938H294.58V150.34H220.28V151.117H295.235V63.3938Z" fill="#3F3D56"/>
<path d="M100.156 151.117H25.2006V63.3938H25.8552V150.34H100.156V151.117Z" fill="#3F3D56"/>
<path d="M336.267 15.1693H335.847V14.2972H336.162C336.217 14.2972 336.271 14.2709 336.31 14.2242C336.349 14.1775 336.372 14.1141 336.372 14.048V9.56289C336.372 9.4968 336.349 9.43342 336.31 9.38669C336.271 9.33997 336.217 9.31371 336.162 9.31371H335.847V6.76655C335.847 6.05394 335.729 5.34832 335.499 4.68996C335.27 4.0316 334.933 3.43339 334.509 2.92951C334.085 2.42562 333.581 2.02592 333.027 1.75323C332.473 1.48053 331.879 1.34018 331.279 1.34019H330.813V0.71725C330.813 0.651166 330.791 0.587788 330.752 0.54106C330.712 0.494331 330.659 0.46808 330.603 0.468079H326.828C326.772 0.46808 326.719 0.494331 326.679 0.54106C326.64 0.587788 326.618 0.651166 326.618 0.71725V1.34019H258.4C257.801 1.34018 257.207 1.48053 256.652 1.75323C256.098 2.02592 255.595 2.42562 255.17 2.92951C254.746 3.43339 254.41 4.0316 254.18 4.68996C253.951 5.34832 253.832 6.05394 253.832 6.76655V122.244C253.832 122.957 253.951 123.662 254.18 124.321C254.41 124.979 254.746 125.577 255.17 126.081C255.595 126.585 256.098 126.985 256.652 127.258C257.207 127.53 257.801 127.671 258.4 127.671H331.279C331.879 127.671 332.473 127.53 333.027 127.258C333.581 126.985 334.085 126.585 334.509 126.081C334.933 125.577 335.27 124.979 335.499 124.321C335.729 123.662 335.847 122.957 335.847 122.244V20.1527H336.267C336.322 20.1527 336.376 20.1265 336.415 20.0797C336.454 20.033 336.476 19.9696 336.476 19.9035V15.4184C336.476 15.3857 336.471 15.3533 336.46 15.3231C336.45 15.2928 336.434 15.2654 336.415 15.2422C336.396 15.2191 336.372 15.2008 336.347 15.1882C336.322 15.1757 336.294 15.1693 336.267 15.1693Z" fill="#3F3D56"/>
<path d="M332.078 4.88965H258.231C257.887 4.88965 257.608 5.22124 257.608 5.63028V122.509C257.608 122.918 257.887 123.249 258.231 123.249H332.078C332.422 123.249 332.701 122.918 332.701 122.509V5.63028C332.701 5.22124 332.422 4.88965 332.078 4.88965Z" fill="#D0CDE1"/>
<path d="M298.759 62.8965H287.186C286.824 62.8965 286.531 63.2447 286.531 63.6742V66.6537C286.531 67.0832 286.824 67.4313 287.186 67.4313H298.759C299.12 67.4313 299.413 67.0832 299.413 66.6537V63.6742C299.413 63.2447 299.12 62.8965 298.759 62.8965Z" fill="#3F3D56"/>
<path d="M314.332 27.5898H271.612C271.251 27.5898 270.958 27.938 270.958 28.3675V28.7557C270.958 29.1852 271.251 29.5333 271.612 29.5333H314.332C314.694 29.5333 314.987 29.1852 314.987 28.7557V28.3675C314.987 27.938 314.694 27.5898 314.332 27.5898Z" fill="#3F3D56"/>
<path d="M314.332 33.7442H271.612C271.251 33.7442 270.958 34.0924 270.958 34.5218V34.91C270.958 35.3395 271.251 35.6877 271.612 35.6877H314.332C314.694 35.6877 314.987 35.3395 314.987 34.91V34.5218C314.987 34.0924 314.694 33.7442 314.332 33.7442Z" fill="#3F3D56"/>
<path d="M314.332 39.8986H271.612C271.251 39.8986 270.958 40.2467 270.958 40.6762V41.0644C270.958 41.4939 271.251 41.842 271.612 41.842H314.332C314.694 41.842 314.987 41.4939 314.987 41.0644V40.6762C314.987 40.2467 314.694 39.8986 314.332 39.8986Z" fill="#3F3D56"/>
<path d="M314.332 46.053H271.612C271.251 46.053 270.958 46.4011 270.958 46.8306V47.2188C270.958 47.6483 271.251 47.9965 271.612 47.9965H314.332C314.694 47.9965 314.987 47.6483 314.987 47.2188V46.8306C314.987 46.4011 314.694 46.053 314.332 46.053Z" fill="#3F3D56"/>
<path d="M314.332 52.2073H271.612C271.251 52.2073 270.958 52.5555 270.958 52.985V53.3732C270.958 53.8027 271.251 54.1508 271.612 54.1508H314.332C314.694 54.1508 314.987 53.8027 314.987 53.3732V52.985C314.987 52.5555 314.694 52.2073 314.332 52.2073Z" fill="#3F3D56"/>
<path d="M291.414 118.576C298.966 118.576 305.089 111.303 305.089 102.331C305.089 93.3591 298.966 86.0861 291.414 86.0861C283.861 86.0861 277.738 93.3591 277.738 102.331C277.738 111.303 283.861 118.576 291.414 118.576Z" fill="#F54708"/>
<path d="M295.444 114.861C292.053 114.861 288.738 113.666 285.919 111.428C283.099 109.19 280.902 106.01 279.604 102.288C278.306 98.5663 277.967 94.4711 278.628 90.5203C279.29 86.5694 280.923 82.9403 283.321 80.0919C285.718 77.2435 288.773 75.3037 292.099 74.5178C295.425 73.732 298.873 74.1353 302.005 75.6768C305.138 77.2184 307.816 79.8289 309.7 83.1783C311.584 86.5276 312.59 90.4654 312.59 94.4937C312.584 99.8936 310.776 105.07 307.562 108.889C304.348 112.707 299.99 114.855 295.444 114.861ZM295.444 74.8671C292.176 74.8671 288.982 76.0182 286.265 78.1748C283.548 80.3314 281.43 83.3966 280.18 86.9829C278.929 90.5692 278.602 94.5155 279.24 98.3227C279.877 102.13 281.451 105.627 283.761 108.372C286.072 111.117 289.016 112.986 292.221 113.743C295.426 114.5 298.748 114.112 301.767 112.626C304.786 111.141 307.366 108.625 309.182 105.398C310.997 102.17 311.966 98.3755 311.966 94.4937C311.961 89.2902 310.219 84.3015 307.122 80.6221C304.024 76.9426 299.825 74.873 295.444 74.8671Z" fill="#3F3D56"/>
<path d="M50.8947 34.65H50.3339V16.3993C50.3339 15.0122 50.1039 13.6386 49.6571 12.3571C49.2102 11.0755 48.5552 9.91105 47.7295 8.93018C46.9038 7.94932 45.9235 7.17125 44.8447 6.64042C43.7659 6.10958 42.6096 5.83636 41.4419 5.83636H8.89205C7.72433 5.83636 6.56804 6.10958 5.48921 6.64042C4.41038 7.17125 3.43012 7.94932 2.60442 8.93018C1.77872 9.91105 1.12373 11.0755 0.676866 12.3571C0.229999 13.6386 -1.28951e-06 15.0122 0 16.3993V116.524C-1.28951e-06 117.911 0.229999 119.285 0.676866 120.566C1.12373 121.848 1.77872 123.012 2.60442 123.993C3.43013 124.974 4.41038 125.752 5.48922 126.283C6.56805 126.814 7.72434 127.087 8.89206 127.087H41.4419C42.6096 127.087 43.7659 126.814 44.8447 126.283C45.9236 125.752 46.9038 124.974 47.7295 123.993C48.5552 123.012 49.2102 121.848 49.6571 120.566C50.1039 119.285 50.3339 117.911 50.3339 116.524V47.6411H50.8947V34.65Z" fill="#3F3D56"/>
<path d="M48.4404 17.0202V116.999C48.4407 119.091 47.7413 121.097 46.4962 122.577C45.251 124.057 43.5621 124.888 41.8009 124.889H9.09389C7.33268 124.888 5.64373 124.057 4.39859 122.577C3.15345 121.097 2.4541 119.091 2.45441 116.999V17.0202C2.4546 14.9285 3.15417 12.9225 4.39928 11.4434C5.64438 9.9643 7.33305 9.13328 9.09389 9.13306H13.062C12.8667 9.70208 12.7922 10.3194 12.8451 10.9307C12.898 11.542 13.0766 12.1284 13.3652 12.6384C13.6538 13.1483 14.0435 13.5662 14.5001 13.8551C14.9566 14.1439 15.466 14.295 15.9833 14.295H34.6309C35.1482 14.295 35.6575 14.144 36.1141 13.8551C36.5707 13.5662 36.9604 13.1484 37.249 12.6384C37.5376 12.1284 37.7162 11.542 37.7691 10.9307C37.822 10.3194 37.7475 9.70208 37.5522 9.13306H41.8009C43.5617 9.13328 45.2504 9.96432 46.4955 11.4434C47.7406 12.9225 48.4402 14.9285 48.4404 17.0202Z" fill="#D0CDE1"/>
<path d="M29.1736 68.0348H21.7212C21.3596 68.0348 21.0665 68.383 21.0665 68.8124V70.3415C21.0665 70.771 21.3596 71.1191 21.7212 71.1191H29.1736C29.5351 71.1191 29.8282 70.771 29.8282 70.3415V68.8124C29.8282 68.383 29.5351 68.0348 29.1736 68.0348Z" fill="#3F3D56"/>
<path d="M39.8643 44.0208H11.0304C10.7232 44.0208 10.4741 44.3167 10.4741 44.6817C10.4741 45.0468 10.7232 45.3427 11.0304 45.3427H39.8643C40.1716 45.3427 40.4207 45.0468 40.4207 44.6817C40.4207 44.3167 40.1716 44.0208 39.8643 44.0208Z" fill="#3F3D56"/>
<path d="M39.8643 48.2068H11.0304C10.7232 48.2068 10.4741 48.5027 10.4741 48.8677C10.4741 49.2327 10.7232 49.5287 11.0304 49.5287H39.8643C40.1716 49.5287 40.4207 49.2327 40.4207 48.8677C40.4207 48.5027 40.1716 48.2068 39.8643 48.2068Z" fill="#3F3D56"/>
<path d="M39.8643 52.3926H11.0304C10.7232 52.3926 10.4741 52.6886 10.4741 53.0536C10.4741 53.4186 10.7232 53.7145 11.0304 53.7145H39.8643C40.1716 53.7145 40.4207 53.4186 40.4207 53.0536C40.4207 52.6886 40.1716 52.3926 39.8643 52.3926Z" fill="#3F3D56"/>
<path d="M39.8643 56.5786H11.0304C10.7232 56.5786 10.4741 56.8745 10.4741 57.2395C10.4741 57.6045 10.7232 57.9004 11.0304 57.9004H39.8643C40.1716 57.9004 40.4207 57.6045 40.4207 57.2395C40.4207 56.8745 40.1716 56.5786 39.8643 56.5786Z" fill="#3F3D56"/>
<path d="M39.8643 60.7645H11.0304C10.7232 60.7645 10.4741 61.0604 10.4741 61.4254C10.4741 61.7904 10.7232 62.0863 11.0304 62.0863H39.8643C40.1716 62.0863 40.4207 61.7904 40.4207 61.4254C40.4207 61.0604 40.1716 60.7645 39.8643 60.7645Z" fill="#3F3D56"/>
<path d="M22.8711 111.347C28.0796 111.347 32.3019 106.332 32.3019 100.144C32.3019 93.9571 28.0796 88.9413 22.8711 88.9413C17.6625 88.9413 13.4402 93.9571 13.4402 100.144C13.4402 106.332 17.6625 111.347 22.8711 111.347Z" fill="#F54708"/>
<path d="M25.6508 108.786C23.3122 108.786 21.0261 107.962 19.0817 106.418C17.1372 104.875 15.6217 102.681 14.7267 100.115C13.8318 97.5481 13.5976 94.7239 14.0539 91.9993C14.5101 89.2746 15.6362 86.7718 17.2899 84.8075C18.9435 82.8431 21.0503 81.5053 23.344 80.9634C25.6376 80.4214 28.0151 80.6996 30.1757 81.7627C32.3362 82.8258 34.1829 84.6261 35.4822 86.936C36.7814 89.2458 37.4749 91.9615 37.4749 94.7395C37.4713 98.4635 36.2244 102.034 34.0078 104.667C31.7911 107.3 28.7856 108.781 25.6508 108.786ZM25.6508 81.2043C23.3972 81.2043 21.1943 81.9981 19.3205 83.4854C17.4468 84.9726 15.9864 87.0866 15.124 89.5598C14.2616 92.033 14.0359 94.7545 14.4756 97.3801C14.9152 100.006 16.0004 102.417 17.5939 104.31C19.1874 106.203 21.2176 107.492 23.4279 108.015C25.6381 108.537 27.9291 108.269 30.0111 107.244C32.0931 106.22 33.8727 104.485 35.1247 102.259C36.3767 100.033 37.0449 97.4165 37.0449 94.7395C37.0415 91.151 35.84 87.7106 33.7039 85.1731C31.5678 82.6356 28.6716 81.2083 25.6508 81.2043Z" fill="#3F3D56"/>
<path d="M57.4451 146.35H48.2803V157.237H57.4451V146.35Z" fill="#D0CDE1"/>
<path d="M63.0095 151.016H51.8808V137.796H63.0095V151.016ZM52.3647 150.441H62.5256V138.371H52.3647V150.441Z" fill="#3F3D56"/>
<path d="M262.671 146.35H253.506V157.237H262.671V146.35Z" fill="#D0CDE1"/>
<path d="M268.236 151.016H257.107V137.796H268.236V151.016ZM257.591 150.441H267.752V138.371H257.591V150.441Z" fill="#3F3D56"/>
</g>
<defs>
<clipPath id="clip0_28_273">
<rect width="336.476" height="205.903" fill="white" transform="translate(0 0.468079)"/>
</clipPath>
</defs>
</svg>
