<svg width="90" height="70" viewBox="0 0 161 85" fill="none" xmlns="http://www.w3.org/2000/svg">
<path d="M92.4213 57.3351C92.1546 57.3351 91.9279 57.2418 91.7413 57.0551C91.5546 56.8685 91.4613 56.6418 91.4613 56.3751V30.3351C91.4613 30.0418 91.5546 29.8018 91.7413 29.6151C91.9279 29.4285 92.1546 29.3351 92.4213 29.3351H103.141C105.221 29.3351 107.035 29.6685 108.581 30.3351C110.128 30.9751 111.328 31.9618 112.181 33.2951C113.035 34.6018 113.461 36.2418 113.461 38.2151C113.461 40.2151 113.035 41.8685 112.181 43.1751C111.328 44.4551 110.128 45.4151 108.581 46.0551C107.035 46.6951 105.221 47.0151 103.141 47.0151H97.1813V56.3751C97.1813 56.6418 97.0879 56.8685 96.9013 57.0551C96.7413 57.2418 96.5146 57.3351 96.2213 57.3351H92.4213ZM97.1013 42.5751H102.941C104.488 42.5751 105.675 42.2151 106.501 41.4951C107.328 40.7485 107.741 39.6551 107.741 38.2151C107.741 36.8818 107.355 35.8151 106.581 35.0151C105.808 34.1885 104.595 33.7751 102.941 33.7751H97.1013V42.5751ZM122.959 57.7351C121.572 57.7351 120.319 57.4685 119.199 56.9351C118.079 56.3751 117.185 55.6418 116.519 54.7351C115.879 53.8018 115.559 52.7618 115.559 51.6151C115.559 49.7485 116.305 48.2685 117.799 47.1751C119.319 46.0551 121.319 45.3085 123.799 44.9351L129.279 44.1351V43.2951C129.279 42.1751 128.999 41.3085 128.439 40.6951C127.879 40.0818 126.919 39.7751 125.559 39.7751C124.599 39.7751 123.812 39.9751 123.199 40.3751C122.612 40.7485 122.172 41.2551 121.879 41.8951C121.665 42.2418 121.359 42.4151 120.959 42.4151H117.799C117.505 42.4151 117.279 42.3351 117.119 42.1751C116.985 42.0151 116.919 41.8018 116.919 41.5351C116.945 41.1085 117.119 40.5885 117.439 39.9751C117.759 39.3618 118.265 38.7751 118.959 38.2151C119.652 37.6285 120.545 37.1351 121.639 36.7351C122.732 36.3351 124.052 36.1351 125.599 36.1351C127.279 36.1351 128.692 36.3485 129.839 36.7751C131.012 37.1751 131.945 37.7218 132.639 38.4151C133.332 39.1085 133.839 39.9218 134.159 40.8551C134.479 41.7885 134.639 42.7751 134.639 43.8151V56.3751C134.639 56.6418 134.545 56.8685 134.359 57.0551C134.172 57.2418 133.945 57.3351 133.679 57.3351H130.439C130.145 57.3351 129.905 57.2418 129.719 57.0551C129.559 56.8685 129.479 56.6418 129.479 56.3751V54.8151C129.132 55.3218 128.665 55.8018 128.079 56.2551C127.492 56.6818 126.772 57.0418 125.919 57.3351C125.092 57.6018 124.105 57.7351 122.959 57.7351ZM124.319 53.9351C125.252 53.9351 126.092 53.7351 126.839 53.3351C127.612 52.9351 128.212 52.3218 128.639 51.4951C129.092 50.6418 129.319 49.5751 129.319 48.2951V47.4551L125.319 48.0951C123.745 48.3351 122.572 48.7218 121.799 49.2551C121.025 49.7885 120.639 50.4418 120.639 51.2151C120.639 51.8018 120.812 52.3085 121.159 52.7351C121.532 53.1351 121.999 53.4418 122.559 53.6551C123.119 53.8418 123.705 53.9351 124.319 53.9351ZM142.983 64.9351C142.77 64.9351 142.583 64.8551 142.423 64.6951C142.263 64.5351 142.183 64.3485 142.183 64.1351C142.183 64.0285 142.183 63.9218 142.183 63.8151C142.21 63.7351 142.263 63.6285 142.343 63.4951L145.463 56.0951L137.783 37.9751C137.677 37.7085 137.623 37.5218 137.623 37.4151C137.65 37.1751 137.743 36.9751 137.903 36.8151C138.063 36.6285 138.263 36.5351 138.503 36.5351H141.743C142.063 36.5351 142.303 36.6151 142.463 36.7751C142.623 36.9351 142.743 37.1085 142.823 37.2951L148.143 50.3751L153.623 37.2951C153.703 37.0818 153.823 36.9085 153.983 36.7751C154.143 36.6151 154.383 36.5351 154.703 36.5351H157.903C158.117 36.5351 158.303 36.6151 158.463 36.7751C158.65 36.9351 158.743 37.1218 158.743 37.3351C158.743 37.4951 158.69 37.7085 158.583 37.9751L147.263 64.1751C147.157 64.3885 147.023 64.5618 146.863 64.6951C146.703 64.8551 146.463 64.9351 146.143 64.9351H142.983Z" fill="#333333"/>
<rect width="67.8505" height="62.6183" rx="10" transform="matrix(0.432725 0.883628 -0.930512 0.406924 58.4171 -0.0408936)" fill="#F54708"/>
<path d="M28.7709 39.2552C29.67 37.0137 30.8772 35.0588 32.3927 33.3907C33.9237 31.684 35.6547 30.3579 37.5857 29.4124C39.5578 28.4817 41.6939 27.9628 43.9939 27.856C46.2939 27.7491 48.678 28.1361 51.1462 29.0171C54.1902 30.1035 56.8604 31.653 59.1568 33.6655L55.2507 38.8321C54.5263 38.1759 53.6553 37.5337 52.6377 36.9054C51.6612 36.2918 50.5559 35.7647 49.3218 35.3243C46.4012 34.2819 43.8311 34.3586 41.6116 35.5545C39.4075 36.7118 37.6777 38.8556 36.4221 41.9861C35.2131 45.0006 34.9719 47.6536 35.6986 49.9453C36.4408 52.1983 38.519 53.9341 41.9333 55.1527C43.2085 55.6079 44.5096 55.9397 45.8367 56.1483C47.1638 56.3569 48.3495 56.4487 49.394 56.4239L48.1179 62.5954C47.1401 62.6883 45.746 62.5883 43.9354 62.2955C42.166 62.0174 40.3969 61.5627 38.6281 60.9314C35.872 59.9477 33.6206 58.7023 31.8738 57.1953C30.1837 55.6642 28.9389 53.9608 28.1395 52.085C27.3966 50.1852 27.0837 48.1517 27.2006 45.9844C27.3329 43.7785 27.8564 41.5354 28.7709 39.2552Z" fill="white"/>
</svg>
