<svg width="100" height="90" viewBox="0 0 212 82" fill="none" xmlns="http://www.w3.org/2000/svg">
<rect x="17.0452" width="66.1926" height="67.4651" rx="10" transform="rotate(14.6345 17.0452 0)" fill="url(#paint0_linear_177_174)"/>
<path d="M42.1436 63.8024C38.1908 63.4549 35.299 62.0013 33.4682 59.4418C31.6373 56.8823 30.8975 53.6049 31.2488 49.6097L33.4405 24.6818L23.5586 23.813L24.2032 16.4813L43.457 18.1741L40.587 50.8162C40.4151 52.7713 40.8268 54.1781 41.8221 55.0366C42.8212 55.8525 43.9582 56.3166 45.2333 56.4287C45.9983 56.4959 46.7709 56.4782 47.5509 56.3755C48.3734 56.2764 49.2883 56.0999 50.2958 55.8458L51.7305 62.9106C50.0706 63.2787 48.5475 63.5517 47.1613 63.7296C45.8138 63.9538 44.1412 63.978 42.1436 63.8024Z" fill="white"/>
<path d="M98.1972 69.64C95.4665 69.64 93.1412 69.0427 91.2212 67.848C89.3438 66.6107 87.9145 64.904 86.9332 62.728C85.9518 60.552 85.4612 58.056 85.4612 55.24V37.192C85.4612 36.7653 85.5892 36.424 85.8452 36.168C86.1438 35.8693 86.5065 35.72 86.9332 35.72H90.1332C90.5598 35.72 90.9012 35.8693 91.1572 36.168C91.4558 36.424 91.6052 36.7653 91.6052 37.192V54.92C91.6052 61.2773 94.3785 64.456 99.9252 64.456C102.571 64.456 104.683 63.624 106.261 61.96C107.883 60.2533 108.693 57.9067 108.693 54.92V37.192C108.693 36.7653 108.821 36.424 109.077 36.168C109.376 35.8693 109.739 35.72 110.165 35.72H113.301C113.771 35.72 114.133 35.8693 114.389 36.168C114.645 36.424 114.773 36.7653 114.773 37.192V67.528C114.773 67.9547 114.645 68.3173 114.389 68.616C114.133 68.872 113.771 69 113.301 69H110.357C109.931 69 109.568 68.872 109.269 68.616C109.013 68.3173 108.885 67.9547 108.885 67.528V64.712C107.733 66.2053 106.325 67.4 104.661 68.296C103.04 69.192 100.885 69.64 98.1972 69.64ZM139.001 69.64C135.972 69.64 133.348 69.064 131.129 67.912C128.953 66.7173 127.268 65.032 126.073 62.856C124.878 60.6373 124.238 57.992 124.153 54.92C124.11 54.28 124.089 53.4267 124.089 52.36C124.089 51.2933 124.11 50.44 124.153 49.8C124.238 46.728 124.878 44.104 126.073 41.928C127.268 39.7093 128.953 38.024 131.129 36.872C133.348 35.6773 135.972 35.08 139.001 35.08C141.476 35.08 143.588 35.4213 145.337 36.104C147.129 36.7867 148.601 37.6613 149.753 38.728C150.905 39.7947 151.758 40.9467 152.313 42.184C152.911 43.4213 153.231 44.5947 153.273 45.704C153.316 46.1307 153.188 46.472 152.889 46.728C152.59 46.984 152.228 47.112 151.801 47.112H148.729C148.302 47.112 147.983 47.0267 147.769 46.856C147.556 46.6427 147.342 46.3013 147.129 45.832C146.361 43.7413 145.316 42.2693 143.993 41.416C142.67 40.5627 141.028 40.136 139.065 40.136C136.505 40.136 134.414 40.9253 132.793 42.504C131.214 44.0827 130.361 46.6213 130.233 50.12C130.19 51.656 130.19 53.1493 130.233 54.6C130.361 58.1413 131.214 60.7013 132.793 62.28C134.414 63.816 136.505 64.584 139.065 64.584C141.028 64.584 142.67 64.1573 143.993 63.304C145.316 62.4507 146.361 60.9787 147.129 58.888C147.342 58.4187 147.556 58.0987 147.769 57.928C147.983 57.7147 148.302 57.608 148.729 57.608H151.801C152.228 57.608 152.59 57.736 152.889 57.992C153.188 58.248 153.316 58.5893 153.273 59.016C153.231 59.912 153.039 60.8293 152.697 61.768C152.356 62.7067 151.801 63.6667 151.033 64.648C150.308 65.5867 149.39 66.44 148.281 67.208C147.172 67.9333 145.828 68.5307 144.249 69C142.713 69.4267 140.964 69.64 139.001 69.64ZM171.434 69.64C169.3 69.64 167.359 69.2133 165.61 68.36C163.86 67.5067 162.452 66.3547 161.386 64.904C160.319 63.4533 159.786 61.8107 159.786 59.976C159.786 57.032 160.98 54.6853 163.37 52.936C165.759 51.1867 168.874 50.0347 172.714 49.48L182.25 48.136V46.28C182.25 44.232 181.652 42.632 180.458 41.48C179.306 40.328 177.407 39.752 174.762 39.752C172.842 39.752 171.284 40.136 170.09 40.904C168.938 41.672 168.127 42.6533 167.658 43.848C167.402 44.488 166.954 44.808 166.314 44.808H163.434C162.964 44.808 162.602 44.68 162.346 44.424C162.132 44.1253 162.026 43.784 162.026 43.4C162.026 42.76 162.26 41.9707 162.73 41.032C163.242 40.0933 164.01 39.176 165.034 38.28C166.058 37.384 167.359 36.6373 168.938 36.04C170.559 35.4 172.522 35.08 174.826 35.08C177.386 35.08 179.54 35.4213 181.29 36.104C183.039 36.744 184.404 37.6187 185.386 38.728C186.41 39.8373 187.135 41.096 187.562 42.504C188.031 43.912 188.266 45.3413 188.266 46.792V67.528C188.266 67.9547 188.116 68.3173 187.818 68.616C187.562 68.872 187.22 69 186.794 69H183.85C183.38 69 183.018 68.872 182.762 68.616C182.506 68.3173 182.378 67.9547 182.378 67.528V64.776C181.823 65.544 181.076 66.312 180.138 67.08C179.199 67.8053 178.026 68.424 176.618 68.936C175.21 69.4053 173.482 69.64 171.434 69.64ZM172.778 64.84C174.527 64.84 176.127 64.4773 177.578 63.752C179.028 62.984 180.159 61.8107 180.97 60.232C181.823 58.6533 182.25 56.6693 182.25 54.28V52.488L174.826 53.576C171.796 54.0027 169.514 54.728 167.978 55.752C166.442 56.7333 165.674 57.992 165.674 59.528C165.674 60.7227 166.015 61.7253 166.698 62.536C167.423 63.304 168.319 63.88 169.386 64.264C170.495 64.648 171.626 64.84 172.778 64.84Z" fill="#333333"/>
<defs>
<linearGradient id="paint0_linear_177_174" x1="75.9561" y1="59.548" x2="47.2971" y2="21.0394" gradientUnits="userSpaceOnUse">
<stop stop-color="#00D2FF" stop-opacity="0.75"/>
<stop offset="1" stop-color="#3A7BD5"/>
</linearGradient>
</defs>
</svg>
