<svg width="171" height="112" viewBox="0 0 171 112" fill="none" xmlns="http://www.w3.org/2000/svg">
<path d="M103.475 68C103.208 68 102.981 67.9067 102.795 67.72C102.608 67.5333 102.515 67.3067 102.515 67.04V41C102.515 40.7067 102.608 40.4667 102.795 40.28C102.981 40.0933 103.208 40 103.475 40H114.195C116.275 40 118.088 40.3333 119.635 41C121.181 41.64 122.381 42.6267 123.235 43.96C124.088 45.2667 124.515 46.9067 124.515 48.88C124.515 50.88 124.088 52.5333 123.235 53.84C122.381 55.12 121.181 56.08 119.635 56.72C118.088 57.36 116.275 57.68 114.195 57.68H108.235V67.04C108.235 67.3067 108.141 67.5333 107.955 67.72C107.795 67.9067 107.568 68 107.275 68H103.475ZM108.155 53.24H113.995C115.541 53.24 116.728 52.88 117.555 52.16C118.381 51.4133 118.795 50.32 118.795 48.88C118.795 47.5467 118.408 46.48 117.635 45.68C116.861 44.8533 115.648 44.44 113.995 44.44H108.155V53.24ZM134.012 68.4C132.625 68.4 131.372 68.1333 130.252 67.6C129.132 67.04 128.239 66.3067 127.572 65.4C126.932 64.4667 126.612 63.4267 126.612 62.28C126.612 60.4133 127.359 58.9333 128.852 57.84C130.372 56.72 132.372 55.9733 134.852 55.6L140.332 54.8V53.96C140.332 52.84 140.052 51.9733 139.492 51.36C138.932 50.7467 137.972 50.44 136.612 50.44C135.652 50.44 134.865 50.64 134.252 51.04C133.665 51.4133 133.225 51.92 132.932 52.56C132.719 52.9067 132.412 53.08 132.012 53.08H128.852C128.559 53.08 128.332 53 128.172 52.84C128.039 52.68 127.972 52.4667 127.972 52.2C127.999 51.7733 128.172 51.2533 128.492 50.64C128.812 50.0267 129.319 49.44 130.012 48.88C130.705 48.2933 131.599 47.8 132.692 47.4C133.785 47 135.105 46.8 136.652 46.8C138.332 46.8 139.745 47.0133 140.892 47.44C142.065 47.84 142.999 48.3867 143.692 49.08C144.385 49.7733 144.892 50.5867 145.212 51.52C145.532 52.4533 145.692 53.44 145.692 54.48V67.04C145.692 67.3067 145.599 67.5333 145.412 67.72C145.225 67.9067 144.999 68 144.732 68H141.492C141.199 68 140.959 67.9067 140.772 67.72C140.612 67.5333 140.532 67.3067 140.532 67.04V65.48C140.185 65.9867 139.719 66.4667 139.132 66.92C138.545 67.3467 137.825 67.7067 136.972 68C136.145 68.2667 135.159 68.4 134.012 68.4ZM135.372 64.6C136.305 64.6 137.145 64.4 137.892 64C138.665 63.6 139.265 62.9867 139.692 62.16C140.145 61.3067 140.372 60.24 140.372 58.96V58.12L136.372 58.76C134.799 59 133.625 59.3867 132.852 59.92C132.079 60.4533 131.692 61.1067 131.692 61.88C131.692 62.4667 131.865 62.9733 132.212 63.4C132.585 63.8 133.052 64.1067 133.612 64.32C134.172 64.5067 134.759 64.6 135.372 64.6ZM154.037 75.6C153.823 75.6 153.637 75.52 153.477 75.36C153.317 75.2 153.237 75.0133 153.237 74.8C153.237 74.6933 153.237 74.5867 153.237 74.48C153.263 74.4 153.317 74.2933 153.397 74.16L156.517 66.76L148.837 48.64C148.73 48.3733 148.677 48.1867 148.677 48.08C148.703 47.84 148.797 47.64 148.957 47.48C149.117 47.2933 149.317 47.2 149.557 47.2H152.797C153.117 47.2 153.357 47.28 153.517 47.44C153.677 47.6 153.797 47.7733 153.877 47.96L159.197 61.04L164.677 47.96C164.757 47.7467 164.877 47.5733 165.037 47.44C165.197 47.28 165.437 47.2 165.757 47.2H168.957C169.17 47.2 169.357 47.28 169.517 47.44C169.703 47.6 169.797 47.7867 169.797 48C169.797 48.16 169.743 48.3733 169.637 48.64L158.317 74.84C158.21 75.0533 158.077 75.2267 157.917 75.36C157.757 75.52 157.517 75.6 157.197 75.6H154.037Z" fill="#333333"/>
<rect width="68.0197" height="62.3979" rx="10" transform="matrix(0.419378 0.907812 -0.907254 0.420584 71.3333 10.0141)" fill="#F54708"/>
<path d="M42.8538 49.6168C43.7296 47.3023 44.904 45.2832 46.3773 43.5597C47.8656 41.7963 49.5475 40.4255 51.4231 39.4472C53.3385 38.484 55.4125 37.9458 57.6451 37.8325C59.8776 37.7192 62.1911 38.1155 64.5854 39.0214C67.5385 40.1387 70.128 41.7344 72.3542 43.8083L68.5557 49.1455C67.8536 48.4693 67.0091 47.8076 66.0222 47.1605C65.0752 46.5285 64.0032 45.9861 62.806 45.5331C59.9727 44.4611 57.478 44.5437 55.3221 45.7808C53.1812 46.978 51.4993 49.1928 50.2763 52.4251C49.0986 55.5378 48.8609 58.2762 49.563 60.6403C50.2803 62.9645 52.295 64.7532 55.6072 66.0064C56.8443 66.4745 58.1067 66.8152 59.3945 67.0288C60.6823 67.2423 61.8331 67.3356 62.8469 67.3086L61.5997 73.6795C60.6506 73.7766 59.2976 73.6752 57.5406 73.3754C55.8236 73.0907 54.1071 72.6237 52.3912 71.9745C49.7175 70.9629 47.534 69.6806 45.8407 68.1275C44.2023 66.5497 42.9965 64.7933 42.2232 62.8584C41.5048 60.8988 41.2039 58.8005 41.3203 56.5636C41.4518 54.2869 41.963 51.9712 42.8538 49.6168Z" fill="white"/>
</svg>
